<svg {{ with .class }} class="{{ . }}" {{ end }} width="938.85" height="88.31" viewBox="0 330.79 938.85 88.31" xmlns="http://www.w3.org/2000/svg"><title>Arnau Vilardebò logo</title><path {{ with .fill }} fill="{{ . }}" {{ end }} d="M53.52 408.23H10.66l-5.45 10.72H0l32.08-64.16 32.07 64.16h-5.19Zm-40.72-4.74h38.55l-19.27-39.13ZM280.02 408.23h-42.87l-5.45 10.72h-5.21l32.08-64.16 32.08 64.16h-5.19Zm-40.72-4.74h38.55l-19.27-39.13ZM154.57 354.7l48.69 53.81v-53.72l4.75-.09v64.25l-48.64-51.87v51.78h-4.8ZM353.9 392.24a25.87 25.87 0 0 1-7.86 19 26.67 26.67 0 0 1-45.58-19v-37.45h4.84v37.45a22.9 22.9 0 0 0 6.42 15.27c3.14 3.14 10.93 6.41 15.36 6.41a21.78 21.78 0 0 0 15.42-6.27c4.08-4.08 6.65-11 6.65-15.41v-37.45h4.75ZM130.99 418.95l-12.38-21.35H87.39v21.35h-4.74v-64.16h32.08a21.39 21.39 0 0 1 8.13 41.14l13.22 23Zm-16.26-59.41H87.39v33.28l27.34.09c8.2 0 11-3.42 11.9-4.27a18.26 18.26 0 0 0 2.52-21.21c-1.64-3-5.37-7.89-14.42-7.89ZM381.5 354.7l20.18 40.26 20.17-40.26h11.94l-32.11 64.23-32.11-64.23ZM448.3 354.7h10.64v64.23H448.3ZM477.45 354.7h10.64v53.49h32.11v10.74h-42.75ZM581.63 408.19h-29.48l-5.46 10.74h-11.98l32.11-64.23 32.12 64.23H587Zm-24.25-10.64h18.88l-9.44-18.88ZM654.63 418.93l-12.4-21.38h-18.14v21.38h-10.64V354.7h32.11a21.41 21.41 0 0 1 8.14 41.18l13.24 23Zm-9.07-53.5h-21.47v21.28l21.47.09a10.19 10.19 0 0 0 7.49-3.14 10.35 10.35 0 0 0 3.15-7.59 10.74 10.74 0 0 0-10.64-10.64ZM683.44 354.7h21.38a32.12 32.12 0 0 1 0 64.23h-21.38Zm21.38 53.49a21.38 21.38 0 0 0 0-42.75h-10.73v42.75ZM793.2 354.7v10.73h-32.11v16.1h32.11v10.64h-32.11v16h32.11v10.74h-42.76v-64.23ZM857.55 386.81a18 18 0 0 1 5.6 13.42 18.48 18.48 0 0 1-5.45 13.24 18.06 18.06 0 0 1-13.24 5.46h-34.8V354.7h34.8a18.78 18.78 0 0 1 18.69 18.73 18.13 18.13 0 0 1-5.6 13.38Zm-13-21.37h-24.2v16.1h24.15a7.61 7.61 0 0 0 3.06-.65 8.43 8.43 0 0 0 2.59-1.76 7.7 7.7 0 0 0 1.71-2.59 8.25 8.25 0 0 0 .6-3.15 8.08 8.08 0 0 0-.6-3 7.7 7.7 0 0 0-1.71-2.59 7.8 7.8 0 0 0-2.59-1.71 8.1 8.1 0 0 0-3.06-.66Zm0 42.75a8.1 8.1 0 0 0 3.06-.6 7.74 7.74 0 0 0 4.3-4.3 8.1 8.1 0 0 0 .6-3.06 7.69 7.69 0 0 0-2.41-5.64 7.4 7.4 0 0 0-5.55-2.41h-24.2v16ZM906.74 354.7a32.12 32.12 0 1 0 32.11 32.11 32.11 32.11 0 0 0-32.11-32.11Zm0 53.32a21.21 21.21 0 1 1 21.21-21.21 21.21 21.21 0 0 1-21.21 21.21ZM888.62 330.79 903.29 348h7.59l-10.59-17.21h-11.67z"/></svg>